# xmcd
#
# Track frame offsets: 
#        150
#        17006
#        33733
#        50356
#        65726
#        82922
#        99072
#        115381
#        133656
#        149304
#
# Disc length: 2211 seconds
#
# Revision: 1
# Processed by: cddbd v1.5.2PL0 Copyright (c) Steve Scherf et al.
# Submitted via: ExactAudioCopy v0.95b4
#
DISCID=8308a10a
DTITLE=ดอกรัก ดวงมาลา - แทนเขาได้บ่
DYEAR=2008
DGENRE=Country
TTITLE0=แทนเขาได้บ่
TTITLE1=ซั่วย้อนไผ๋
TTITLE2=มักบ่าวรุ่นน้อง
TTITLE3=คืนนั้นบอกไม่ได้
TTITLE4=สาวคำหล่วง
TTITLE5=ขอนอกใจแหน่
TTITLE6=ขี้คร้านถ่า
TTITLE7=แค่คนซ้อมจีบ
TTITLE8=น้องยังไม่เข็ด
TTITLE9=สาวหมอลำเพื่อชีวิต
EXTD=
EXTT0=
EXTT1=
EXTT2=
EXTT3=
EXTT4=
EXTT5=
EXTT6=
EXTT7=
EXTT8=
EXTT9=
PLAYORDER=
